<?xml version="1.0" encoding="utf-8"?>
<!-- Generator: Adobe Illustrator 21.0.2, SVG Export Plug-In . SVG Version: 6.00 Build 0)  -->
<svg version="1.1" id="Layer_1" xmlns="http://www.w3.org/2000/svg" xmlns:xlink="http://www.w3.org/1999/xlink" x="0px" y="0px"
	 viewBox="0 0 351 542" style="enable-background:new 0 0 351 542;" xml:space="preserve">
<style type="text/css">
	.st0{fill:#999999;}
	.st1{fill:#FF7BAC;}
</style>
<g>
	<g>
		<path class="st0" d="M27,441.2h30.8c6.8,0,12.4,2.2,16.8,6.5c4.5,4.3,6.7,9.7,6.7,16c0,3-0.5,5.8-1.5,8.4c-1,2.6-2.2,4.7-3.7,6.2
			s-2.9,2.8-4.3,3.9s-2.7,1.9-3.7,2.3l-1.5,0.7l16.7,29.2H70.9l-15.7-28.2H38.5v28.2H27V441.2z M66.4,455.2
			c-2.3-2.3-5.1-3.4-8.5-3.4H38.5v24h19.3c3.4,0,6.3-1.1,8.5-3.4c2.3-2.3,3.4-5.2,3.4-8.6C69.8,460.3,68.7,457.5,66.4,455.2z"/>
		<path class="st0" d="M103.8,493c0.5,3.5,2.3,6.6,5.2,9.2c2.9,2.6,6.4,3.9,10.5,3.9c2.9,0,5.7-0.7,8.2-2c2.5-1.3,4.3-2.6,5.4-3.9
			l1.6-1.9l6.8,6.8c-0.2,0.3-0.5,0.7-0.9,1.1c-0.4,0.5-1.3,1.3-2.7,2.5c-1.4,1.2-2.9,2.2-4.4,3.1c-1.6,0.9-3.6,1.7-6.1,2.5
			c-2.5,0.8-5.1,1.1-7.7,1.1c-7.1,0-13.2-2.6-18.4-7.8c-5.2-5.2-7.7-11.5-7.7-18.8c0-7,2.5-13.1,7.5-18.1c5-5,11-7.5,18.1-7.5
			s12.9,2.3,17.6,7c4.7,4.7,7,10.5,7,17.6L143,493H103.8z M109.4,475.5c-2.6,2.2-4.3,5.1-5.2,8.7h29c-0.6-3.5-2.2-6.4-4.7-8.7
			c-2.6-2.2-5.8-3.3-9.6-3.3C115.2,472.1,112,473.2,109.4,475.5z"/>
		<path class="st0" d="M165.4,469.5l0.7-0.7c0.3-0.3,1-0.8,1.9-1.5c1-0.7,2-1.3,3.1-1.9c1.1-0.6,2.5-1.1,4.2-1.5
			c1.7-0.5,3.4-0.7,5.2-0.7c6.1,0,11,2,14.7,6c3.8,4,5.6,9.3,5.6,16v29.2h-10.5v-29.2c0-3.6-1.1-6.6-3.4-9s-5.1-3.6-8.5-3.6
			c-4,0-7.2,1.3-9.5,3.9c-2.4,2.6-3.5,6.2-3.5,10.8v27.2H155v-50.2h10.5V469.5z"/>
		<path class="st0" d="M221.8,447.5h9.4v16.7h10.5v9.4h-10.5v26c0,1.9,0.6,3.4,1.8,4.6c1.2,1.2,2.7,1.8,4.5,1.8
			c0.8,0,1.6-0.1,2.5-0.3c0.9-0.2,1.5-0.4,2-0.6l0.8-0.2v9.4c-2.1,0.7-4.5,1-7.4,1c-9.8,0-14.6-5.2-14.6-15.7v-26.1h-9.4v-9.4h5.3
			c3.5,0,5.2-2.1,5.2-6.3V447.5z"/>
		<path class="st1" d="M265.2,450.9c7.7-7.5,17.1-11.2,28.2-11.2c11.1,0,20.6,3.7,28.2,11.2c7.7,7.5,11.5,16.4,11.5,26.9
			c0,4.4-0.7,8.5-2.1,12.5c-1.4,3.9-3.1,7.1-5,9.5c-2,2.4-3.9,4.5-5.9,6.3c-2,1.8-3.7,3.1-5.1,3.9l-2.1,1.1c0.1,0.2,0.3,0.5,0.6,0.8
			c0.3,0.4,0.9,1,2,1.8c1.1,0.8,2.2,1.6,3.5,2.2c1.3,0.7,3,1.3,5.3,1.8c2.2,0.6,4.6,0.8,7.2,0.8h2.1v12.6h-3.1
			c-4.2,0-8.1-0.5-11.8-1.6c-3.7-1.1-6.7-2.3-9-3.9c-2.3-1.5-4.3-3.1-6.1-4.6s-3-2.8-3.8-3.9l-1.1-1.5c-1.5,0.2-3.3,0.3-5.4,0.3
			c-11.2,0-20.6-3.7-28.3-11.2c-7.7-7.5-11.5-16.5-11.5-27C253.7,467.3,257.5,458.3,265.2,450.9z M276.8,494.9
			c4.6,4.6,10.1,6.9,16.7,6.9c6.6,0,12.1-2.3,16.7-6.9c4.6-4.6,6.8-10.3,6.8-17.1s-2.3-12.5-6.8-17.1c-4.6-4.6-10.1-7-16.7-7
			c-6.6,0-12.1,2.3-16.7,7c-4.6,4.6-6.8,10.3-6.8,17.1S272.2,490.3,276.8,494.9z"/>
	</g>
	<path class="st1" d="M247.3,127.1c17.6,42,13.9,59.7,6.2,67.9l-70.6,72h0.2l-70.6-72c-7.7-8.1-11.4-25.8,6.2-67.9
		C118.7,127.1,182.1,97.3,247.3,127.1z"/>
	<g>
		<path class="st0" d="M183,123c36.2,0,70.2,14.1,95.8,39.7c25.6,25.6,39.7,59.6,39.7,95.8s-14.1,70.2-39.7,95.8
			C253.2,379.9,219.2,394,183,394s-70.2-14.1-95.8-39.7c-25.6-25.6-39.7-59.6-39.7-95.8s14.1-70.2,39.7-95.8
			C112.8,137.1,146.8,123,183,123 M183,103c-85.9,0-155.5,69.6-155.5,155.5S97.1,414,183,414s155.5-69.6,155.5-155.5
			S268.9,103,183,103L183,103z"/>
		<path class="st0" d="M222,45c0-23.2-18.8-42-42-42s-42,18.8-42,42c0,5.5,4.5,10,10,10s10-4.5,10-10c0-12.1,9.9-22,22-22
			s22,9.9,22,22s-9.9,22-22,22c-5.5,0-10,4.5-10,10v44h20V85.7C208.3,81.3,222,64.7,222,45z"/>
	</g>
	<g>
		<path class="st1" d="M197.3,316.4c0-0.6,0-1.2-0.1-1.8c-1.4-13.6-14.3-32.6-14.3-32.6h-0.1c0,0-11.7,17.3-14,30.7
			c-0.3,1.2-0.5,2.5-0.5,3.8c0,1.1,0.1,2.1,0.3,3.1c0.2,1.5,0.7,2.8,1.5,4h0c2.5,4.5,7.2,7.5,12.7,7.5s10.2-3,12.7-7.5h0.1
			c1.2-1.9,1.7-4.2,1.7-6.9C197.3,316.5,197.3,316.5,197.3,316.4z"/>
		<path class="st1" d="M206.8,285.3c-0.3-0.2-0.5-0.3-0.8-0.5c-6.3-3.2-18.2-2.8-18.2-2.8l0,0c0,0,4.3,9.9,9.4,14.6
			c0.4,0.5,0.9,0.9,1.5,1.3c0.5,0.3,0.9,0.5,1.4,0.7c0.7,0.3,1.4,0.5,2.1,0.5l0,0c2.6,0.2,5.3-1.1,6.8-3.4s1.5-5.3,0.3-7.6l0,0
			C208.9,287,208,286.1,206.8,285.3C206.8,285.4,206.8,285.4,206.8,285.3z"/>
		<path class="st1" d="M159.2,285.3c0.3-0.2,0.5-0.3,0.8-0.5c6.3-3.2,18.2-2.8,18.2-2.8l0,0c0,0-4.3,9.9-9.4,14.6
			c-0.4,0.5-0.9,0.9-1.5,1.3c-0.5,0.3-0.9,0.5-1.4,0.7c-0.7,0.3-1.4,0.5-2.1,0.5l0,0c-2.6,0.2-5.3-1.1-6.8-3.4s-1.5-5.3-0.3-7.6l0,0
			C157.1,287,158,286.1,159.2,285.3C159.2,285.4,159.2,285.4,159.2,285.3z"/>
	</g>
</g>
</svg>
